<svg id="Capa_1" enable-background="new 0 0 510 510" height="512" viewBox="0 0 510 510" width="512" xmlns="http://www.w3.org/2000/svg" xmlns:xlink="http://www.w3.org/1999/xlink"><linearGradient id="lg1"><stop offset="0" stop-color="#fff5d9"/><stop offset="1" stop-color="#ffce47"/></linearGradient><linearGradient id="SVGID_1_" gradientUnits="userSpaceOnUse" x1="227.398" x2="395.984" xlink:href="#lg1" y1="-9.589" y2="158.996"/><linearGradient id="lg2"><stop offset="0" stop-color="#6fa953"/><stop offset="1" stop-color="#43765a"/></linearGradient><linearGradient id="SVGID_2_" gradientUnits="userSpaceOnUse" x1="32.499" x2="107.959" xlink:href="#lg2" y1="159.999" y2="235.459"/><linearGradient id="lg3"><stop offset="0" stop-color="#e4e08e"/><stop offset="1" stop-color="#6fa953"/></linearGradient><linearGradient id="SVGID_3_" gradientUnits="userSpaceOnUse" x1="155.564" x2="254.732" xlink:href="#lg3" y1="28.064" y2="127.232"/><linearGradient id="lg4"><stop offset="0" stop-color="#ffce47"/><stop offset="1" stop-color="#ff9356"/></linearGradient><linearGradient id="SVGID_4_" gradientUnits="userSpaceOnUse" x1="336.428" x2="497.381" xlink:href="#lg4" y1="99.441" y2="260.394"/><linearGradient id="lg5"><stop offset="0" stop-color="#ff9356"/><stop offset="1" stop-color="#ff755c"/></linearGradient><linearGradient id="SVGID_5_" gradientUnits="userSpaceOnUse" x1="372.184" x2="465.492" xlink:href="#lg5" y1="244.684" y2="337.992"/><linearGradient id="lg6"><stop offset="0" stop-color="#7acbff"/><stop offset="1" stop-color="#45a2e0"/></linearGradient><linearGradient id="SVGID_6_" gradientUnits="userSpaceOnUse" x1="19.054" x2="128.849" xlink:href="#lg6" y1="256.041" y2="365.836"/><linearGradient id="lg7"><stop offset="0" stop-color="#ff755c"/><stop offset="1" stop-color="#ff4181"/></linearGradient><linearGradient id="SVGID_7_" gradientUnits="userSpaceOnUse" x1="254.821" x2="346.93" xlink:href="#lg7" y1="382.321" y2="474.43"/><linearGradient id="lg8"><stop offset="0" stop-color="#ff4181"/><stop offset="1" stop-color="#843561"/></linearGradient><linearGradient id="SVGID_8_" gradientUnits="userSpaceOnUse" x1="97.593" x2="320.32" xlink:href="#lg8" y1="334.58" y2="557.308"/><linearGradient id="SVGID_9_" gradientUnits="userSpaceOnUse" x1="335.231" x2="311.386" xlink:href="#lg1" y1="228.593" y2="29.887"/><linearGradient id="SVGID_10_" gradientUnits="userSpaceOnUse" x1="151.815" x2="23.216" xlink:href="#lg2" y1="248.532" y2="119.933"/><linearGradient id="SVGID_11_" gradientUnits="userSpaceOnUse" x1="241.755" x2="127.309" xlink:href="#lg3" y1="145.038" y2="30.592"/><linearGradient id="SVGID_12_" gradientUnits="userSpaceOnUse" x1="447.214" x2="326.397" xlink:href="#lg4" y1="253.756" y2="132.938"/><linearGradient id="SVGID_13_" gradientUnits="userSpaceOnUse" x1="438.885" x2="358.169" xlink:href="#lg5" y1="342.169" y2="261.452"/><linearGradient id="SVGID_14_" gradientUnits="userSpaceOnUse" x1="183.528" x2="34.502" xlink:href="#lg6" y1="376.987" y2="227.96"/><linearGradient id="SVGID_15_" gradientUnits="userSpaceOnUse" x1="346.481" x2="237.86" xlink:href="#lg7" y1="443.198" y2="334.577"/><linearGradient id="SVGID_16_" gradientUnits="userSpaceOnUse" x1="257.452" x2="124.889" xlink:href="#lg8" y1="450.91" y2="318.348"/><linearGradient id="SVGID_17_" gradientUnits="userSpaceOnUse" x1="373.327" x2="208.887" y1="443.604" y2="279.165"><stop offset="0" stop-color="#843561" stop-opacity="0"/><stop offset="1" stop-color="#3a2f4d"/></linearGradient><linearGradient id="SVGID_18_" gradientUnits="userSpaceOnUse" x1="223.603" x2="312.432" y1="223.603" y2="312.432"><stop offset="0" stop-color="#edf5ff"/><stop offset="1" stop-color="#c7e9ff"/></linearGradient><linearGradient id="lg9"><stop offset="0" stop-color="#dfdfdf"/><stop offset="1" stop-color="#9da6ac"/></linearGradient><linearGradient id="SVGID_19_" gradientTransform="matrix(.992 .992 -.707 .707 -2014.452 -1429.275)" gradientUnits="userSpaceOnUse" x1="1985.049" x2="2004.636" xlink:href="#lg9" y1="-240.042" y2="-240.042"/><linearGradient id="SVGID_20_" gradientTransform="matrix(.707 .707 -.707 .707 -1522.218 -937.041)" gradientUnits="userSpaceOnUse" x1="2042.675" x2="2185.142" xlink:href="#lg9" y1="-471.583" y2="-329.117"/><linearGradient id="SVGID_21_" gradientTransform="matrix(-.707 -.707 .707 -.707 2221.757 -3910.708)" gradientUnits="userSpaceOnUse" x1="-1603.935" x2="-1481.809" xlink:href="#lg9" y1="-4384.449" y2="-4262.323"/><linearGradient id="SVGID_22_" gradientUnits="userSpaceOnUse" x1="56.256" x2="80.537" y1="425.068" y2="449.349"><stop offset="0" stop-color="#9da6ac"/><stop offset="1" stop-color="#5a7587"/></linearGradient><g><g><g><path d="m435.312 74.688-100.166 100.166c-20.514-20.513-48.852-33.204-80.146-33.204v-141.65c70.412 0 134.172 28.534 180.312 74.688z" fill="url(#SVGID_1_)"/><path d="m174.854 174.854c-20.514 20.514-33.204 48.852-33.204 80.146h-141.65c0-70.412 28.535-134.172 74.688-180.312z" fill="url(#SVGID_2_)"/><path d="m255 0v141.65c-31.294 0-59.632 12.69-80.146 33.204l-100.166-100.166c46.14-46.154 109.9-74.688 180.312-74.688z" fill="url(#SVGID_3_)"/><path d="m510 255h-141.65c0-31.294-12.69-59.632-33.204-80.146l100.166-100.166c46.153 46.14 74.688 109.9 74.688 180.312z" fill="url(#SVGID_4_)"/><path d="m510 255c0 70.412-28.535 134.172-74.688 180.312l-100.166-100.166c20.514-20.514 33.204-48.852 33.204-80.146z" fill="url(#SVGID_5_)"/><path d="m174.854 335.146-100.166 100.166c-46.153-46.14-74.688-109.9-74.688-180.312h141.65c0 31.294 12.69 59.632 33.204 80.146z" fill="url(#SVGID_6_)"/><path d="m435.312 435.312c-46.14 46.154-109.9 74.688-180.312 74.688v-141.65c31.294 0 59.632-12.69 80.146-33.204z" fill="url(#SVGID_7_)"/><path d="m255 368.35v141.65c-70.412 0-134.172-28.534-180.312-74.688l100.167-100.167c20.513 20.514 48.851 33.205 80.145 33.205z" fill="url(#SVGID_8_)"/></g><g><path d="m391.784 118.216-56.638 56.638c-20.514-20.513-48.852-33.204-80.146-33.204v-80.084c53.422 0 101.768 21.648 136.784 56.65z" fill="url(#SVGID_9_)"/><path d="m174.854 174.854c-20.514 20.514-33.204 48.852-33.204 80.146h-80.084c0-53.422 21.647-101.768 56.65-136.784z" fill="url(#SVGID_10_)"/><path d="m255 61.566v80.084c-31.294 0-59.632 12.69-80.146 33.204l-56.638-56.638c35.016-35.002 83.362-56.65 136.784-56.65z" fill="url(#SVGID_11_)"/><path d="m448.434 255h-80.084c0-31.294-12.69-59.632-33.204-80.146l56.638-56.638c35.002 35.016 56.65 83.362 56.65 136.784z" fill="url(#SVGID_12_)"/><path d="m448.434 255c0 53.422-21.647 101.768-56.65 136.784l-56.638-56.638c20.514-20.514 33.204-48.851 33.204-80.146z" fill="url(#SVGID_13_)"/><path d="m174.854 335.146-56.638 56.638c-35.003-35.016-56.65-83.362-56.65-136.784h80.084c0 31.294 12.69 59.632 33.204 80.146z" fill="url(#SVGID_14_)"/><path d="m391.784 391.784c-35.015 35.003-83.361 56.65-136.784 56.65v-80.084c31.294 0 59.632-12.69 80.146-33.204z" fill="url(#SVGID_15_)"/><path d="m255 368.35v80.084c-53.422 0-101.768-21.647-136.784-56.65l56.638-56.638c20.514 20.513 48.852 33.204 80.146 33.204z" fill="url(#SVGID_16_)"/></g></g><path d="m255 510c70.412 0 134.172-28.534 180.312-74.688 38.861-38.85 65.226-90.193 72.589-147.479l-142.764-142.764-29.89 29.889c20.453 20.506 33.102 48.799 33.102 80.041 0 31.294-12.69 59.632-33.204 80.146-20.513 20.514-48.851 33.205-80.145 33.205-31.242 0-59.535-12.649-80.041-33.102l-100.167 100.167c46.133 46.092 109.848 74.585 180.208 74.585z" fill="url(#SVGID_17_)"/><circle cx="255" cy="255" fill="url(#SVGID_18_)" r="114.524"/><g><g><path d="m121.858 413.694-25.357-25.357 46.13-46.13 25.357 25.357z" fill="url(#SVGID_19_)"/><g><path d="m365.137 145.069c-60.475-60.475-158.53-60.475-219.006 0-60.475 60.475-60.475 158.53 0 219.006 60.475 60.475 158.518 60.463 218.994-.012s60.488-158.518.012-218.994zm-183.895 183.896c-41.092-41.092-41.08-107.705 0-148.785 41.092-41.092 107.693-41.092 148.785 0 41.08 41.08 41.092 107.693 0 148.785-41.08 41.08-107.705 41.08-148.785 0z" fill="url(#SVGID_20_)"/><path d="m161.763 348.42c51.845 51.845 135.899 51.845 187.743 0s51.833-135.887-.012-187.731c-51.833-51.833-135.875-51.845-187.719 0s-51.845 135.898-.012 187.731zm168.264-168.264c41.092 41.092 41.08 107.705 0 148.785-41.092 41.092-107.693 41.092-148.785 0-41.08-41.08-41.092-107.693 0-148.785 41.08-41.08 107.705-41.08 148.785 0z" fill="url(#SVGID_21_)"/></g></g><path d="m8.764 480.884 20.551 20.551c8.911 8.911 23.358 8.911 32.269 0l3.634-3.634c7.684-7.684 14.179-16.471 19.27-26.071 5.091-9.6 11.586-18.387 19.27-26.071l24.431-24.431c7.603-7.603 7.603-19.93 0-27.533l-11.683-11.683c-7.603-7.603-19.93-7.603-27.533 0l-24.432 24.428c-7.684 7.684-16.471 14.179-26.071 19.27-9.6 5.091-18.387 11.586-26.071 19.27l-3.634 3.634c-8.912 8.911-8.912 23.359-.001 32.27z" fill="url(#SVGID_22_)"/></g></g></svg>